<?xml version="1.0" encoding="UTF-8" standalone="no"?>
<!-- Created with Inkscape (http://www.inkscape.org/) -->

<svg
   width="210mm"
   height="297mm"
   viewBox="0 0 210 297"
   version="1.1"
   id="svg5"
   xmlns="http://www.w3.org/2000/svg"
   xmlns:svg="http://www.w3.org/2000/svg">
  <defs
     id="defs2" />
  <g
     id="layer1">
    <path
       style="fill:#000000;stroke-width:0.264583"
       id="path42"
       d="m 43.705211,120.91982 c 11.148515,25.57757 21.226015,51.60252 31.361332,77.59264 3.032032,7.57828 6.053947,15.16634 9.368075,22.62747 0.373875,0.84171 1.808176,4.64531 3.127634,5.52498 0.393798,0.26254 0.945277,0.0497 1.417918,0.0746 1.525979,-1.09337 3.254555,-1.94867 4.577937,-3.28011 0.693145,-0.69737 0.9036,-1.74758 1.309468,-2.64315 0.565209,-1.24715 1.041604,-2.53318 1.602521,-3.78227 2.902402,-6.46329 6.247554,-12.68959 9.571384,-18.94194 1.48365,-2.82619 5.20601,-9.66083 6.35516,-12.80675 1.42208,-3.8931 2.26668,-6.9212 0.59649,-10.89864 -1.75971,-4.19059 -4.15282,-4.89741 -7.77204,-7.21026 -1.99343,-0.63225 -3.94965,-1.39674 -5.980283,-1.89674 -5.041344,-1.24133 -10.667778,-1.65416 -15.859281,-1.81793 -1.799053,-0.0567 -3.599759,-0.0314 -5.399638,-0.0473 -0.270724,-0.15347 -0.783039,-0.15059 -0.812167,-0.46042 -0.05729,-0.60933 0.369588,-1.16865 0.605922,-1.73321 0.548447,-1.31013 1.160391,-2.59279 1.746583,-3.88648 0.882698,-1.94806 1.774132,-3.89214 2.660068,-5.83873 4.009303,-8.80926 2.131537,-4.5897 6.072177,-13.68886 0.953569,-2.48085 1.969963,-4.93846 2.860707,-7.44255 0.877075,-2.46567 1.678826,-4.95837 2.441038,-7.46193 1.675442,-5.50315 3.15818,-11.1598 3.80252,-16.89224 0.125272,-1.11449 0.129876,-2.23925 0.194813,-3.35889 -0.06934,-0.77192 -0.07722,-1.55185 -0.208021,-2.31576 -0.0845,-0.493548 -0.207828,-0.991528 -0.434676,-1.437925 -0.119372,-0.234908 -0.359849,-0.699841 -0.57285,-0.544722 -1.296669,0.944314 -3.120987,1.841417 -3.381147,3.424267 -0.27972,1.70185 1.298139,3.19778 2.036556,4.7564 1.18922,2.51014 2.495854,4.96296 3.743783,7.44444 9.628226,18.34388 19.665946,36.47655 28.857776,55.04725 1.57252,3.17704 3.08515,6.38337 4.62772,9.57505 4.11614,9.09278 8.61168,18.06471 11.76231,27.55632 0.0688,0.26982 0.16344,0.53435 0.20653,0.80946 0.007,0.0462 -0.04,0.0845 -0.0599,0.12668 1.12214,-0.70386 2.24427,-1.40772 3.36641,-2.11157 0,0 -3.43831,1.99456 -3.43831,1.99456 v 0 c 3.79962,-1.77192 4.09144,-0.53236 3.26508,-2.67046 -3.68325,-9.27462 -8.21678,-18.17397 -12.56122,-27.14941 -4.62845,-9.2633 -5.29385,-10.68411 -10.24155,-20.19515 -7.71375,-14.82827 -15.76028,-29.48919 -23.03944,-44.53965 -1.14935,-2.52689 -2.391917,-5.01343 -3.448051,-7.58067 -0.644721,-1.56719 -0.37347,-3.69325 -1.648926,-4.80903 -0.852498,-0.745769 -2.27449,0.13789 -3.372395,0.41634 -0.195609,0.0496 0.417298,0.13409 0.522036,0.30658 0.586775,0.96635 0.622541,2.54926 0.746591,3.54553 -0.03463,1.09158 -0.007,2.18693 -0.103894,3.27475 -0.284059,3.18821 -0.988827,6.96763 -1.720652,10.02309 -1.103526,4.60736 -2.648497,9.67232 -4.237257,14.10975 -0.89727,2.50609 -1.929013,4.96198 -2.893523,7.44297 -3.10048,7.08702 -2.930498,6.84037 -6.185188,13.73052 -0.936966,1.98355 -1.906148,3.95172 -2.855603,5.92932 -0.190966,0.39776 -2.686709,4.77144 -2.37826,6.2699 0.07805,0.37918 0.679029,0.37202 1.018543,0.55803 5.177186,-0.11568 10.337188,-0.16062 15.48907,0.51224 2.024957,0.26448 4.055139,0.54533 6.040006,1.02563 1.997104,0.48327 3.918323,1.23882 5.877483,1.85823 3.51768,2.24001 5.85733,2.935 7.5871,6.98722 1.65283,3.87197 0.8365,6.82671 -0.53629,10.6383 -1.15995,3.22064 -4.75744,9.8501 -6.26856,12.74727 -3.386387,6.32882 -6.817358,12.63396 -9.899032,19.1194 -0.597924,1.25834 -1.104558,2.55943 -1.72226,3.80818 -0.439703,0.88891 -1.715955,1.64478 -1.447281,2.59941 0.189558,0.67352 1.361128,-0.32494 2.041689,-0.48741 -0.431869,0.0915 -0.898369,0.46711 -1.295612,0.27454 -1.440958,-0.69855 -3.013046,-4.48829 -3.39181,-5.25546 -3.60168,-7.29503 -6.820061,-14.77335 -9.980065,-22.2672 C 66.876496,171.33207 56.51,145.38941 46.727669,119.22408 c 0,0 -3.022428,1.69575 -3.022428,1.69575 z" />
  </g>
</svg>
