<?xml version="1.0" encoding="UTF-8" standalone="no"?>
<!-- Created with Inkscape (http://www.inkscape.org/) -->

<svg
   width="210mm"
   height="297mm"
   viewBox="0 0 210 297"
   version="1.1"
   id="svg5"
   xmlns="http://www.w3.org/2000/svg"
   xmlns:svg="http://www.w3.org/2000/svg">
	<title id="unique-id">Letter "koza" on finger language</title>
  <defs
     id="defs2" />
  <g
     id="layer1">
    <path
       style="fill:#00ffff;stroke-width:0.5"
       id="path44"
       d="m 38.047874,108.72947 c 4.344217,9.02734 8.59917,18.09847 12.946499,27.12424 3.276346,6.80223 6.885284,14.0699 10.231257,20.84575 3.724117,7.33409 7.386741,14.711 11.57899,21.79412 0.190457,0.32179 2.687645,4.89135 3.991324,5.46463 0.401214,0.17643 0.829363,-0.28382 1.244044,-0.42573 1.313336,-1.37089 2.945382,-2.4956 3.940003,-4.11267 0.50119,-0.81484 0.26969,-1.89555 0.342236,-2.84943 0.137975,-1.81423 0.155371,-4.42835 -0.0053,-6.2371 -0.300963,-3.38814 -0.812051,-5.49242 -1.474552,-8.92194 -1.227783,-5.62535 -2.541489,-11.24727 -4.266938,-16.74494 -0.834353,-2.65844 -1.786204,-5.43834 -3.117437,-7.90952 -0.459142,-0.8523 -1.061095,-1.61957 -1.591643,-2.42935 -1.612551,-1.92501 -3.512272,-3.65426 -6.098244,-2.50247 0.07458,0.0402 0.163391,0.17994 0.223743,0.1205 0.473146,-0.46602 1.114779,-2.6202 1.157522,-2.75704 0.323782,-1.03664 0.664697,-2.07156 0.892895,-3.13335 0.595852,-2.77245 1.336498,-8.27211 1.724702,-10.96018 0.64646,-7.57915 1.58967,-15.264207 0.841796,-22.877598 -0.0661,-0.672912 -0.188799,-1.339053 -0.283199,-2.008581 -0.130046,-0.459637 -0.218091,-0.933286 -0.390134,-1.378908 -0.931812,-2.413543 -2.82593,-0.935157 -4.698502,1.264401 -0.400656,0.470617 0.0045,1.252064 0.176167,1.84581 0.393999,1.362678 1.005385,2.652869 1.508075,3.979304 1.117076,2.07958 2.180913,4.188652 3.351223,6.238742 1.489781,2.60972 3.06791,5.16812 4.626975,7.73705 0.511265,0.84244 10.677586,17.35428 10.950448,17.80554 4.660024,7.70672 5.989328,10.10246 10.374058,17.71406 3.442962,5.99109 6.837888,12.01216 10.037678,18.13748 1.35568,2.59516 2.6409,5.18577 3.73594,7.89886 0.10628,0.3683 0.45559,1.27826 0.36651,1.77967 -0.0212,0.11912 -0.14148,0.1963 -0.21222,0.29445 1.0292,-0.64525 2.07682,-1.262 3.08758,-1.93575 0.088,-0.0587 -0.20075,0.0794 -0.30647,0.0819 -0.13152,0.003 -0.25952,-0.0434 -0.38928,-0.0651 -1.04819,-0.477 -1.91415,-1.27652 -2.70113,-2.10124 -0.81702,-0.91444 -0.4122,-0.44203 -1.21268,-1.41874 0,0 -3.34774,2.00441 -3.34774,2.00441 v 0 c 0.80316,0.99627 0.39957,0.51269 1.20928,1.45197 0.81846,0.89633 1.72658,1.71202 2.79268,2.3058 1.91437,0.66628 1.80442,-0.0581 4.46207,-1.98183 0.12771,-0.0924 0.10151,-0.30502 0.0982,-0.46264 -0.0125,-0.59845 -0.33978,-1.302 -0.52687,-1.81952 -1.23387,-2.65319 -2.62592,-5.20193 -4.06173,-7.75293 -3.39016,-6.02331 -6.90272,-11.9769 -10.420681,-17.92602 -5.324314,-9.00082 -10.686071,-17.97544 -16.085198,-26.93149 -2.732022,-4.53187 -7.08687,-11.66855 -9.624624,-16.44363 -1.102029,-2.073602 -2.051015,-4.224982 -3.076524,-6.33747 -0.412912,-1.334077 -0.946947,-2.636542 -1.23874,-4.002236 -0.117517,-0.550032 0.58088,-1.614493 0.02315,-1.687182 -1.114015,-0.145185 -2.0774,0.85606 -3.116101,1.284087 0.129239,0.07288 0.286504,0.110154 0.387718,0.218643 0.183962,0.197189 0.337984,0.427895 0.445987,0.675003 0.182848,0.418351 0.279326,0.86936 0.418986,1.304041 0.11349,0.648917 0.25636,1.293379 0.340471,1.946754 0.963459,7.48417 0.111628,15.20187 -0.596392,22.66177 -0.626954,4.03585 -1.000508,7.09641 -1.986251,11.02927 -0.268843,1.07261 -0.641344,2.11744 -1.012261,3.15917 -0.239273,0.672 -0.539605,1.32071 -0.816856,1.97795 -0.142772,0.33845 -0.395986,0.64468 -0.443148,1.00897 -0.02503,0.19327 0.162483,0.35427 0.243726,0.53141 0.156562,-0.10465 0.299707,-0.23288 0.469683,-0.31394 1.360347,-0.64874 2.891092,-0.17987 4.013465,0.73198 0.543814,0.44181 0.990899,0.99088 1.486349,1.48632 0.547474,0.77802 1.168382,1.50925 1.642425,2.33408 1.380509,2.40204 2.388386,5.16729 3.242234,7.777 1.790147,5.47142 3.089833,11.09343 4.210158,16.73464 0.693804,4.05415 1.407723,7.96485 1.375344,12.09277 -0.008,1.02321 -0.04506,2.04796 -0.145151,3.0663 -0.09272,0.94335 -0.981215,2.03768 -0.432495,2.8106 0.479766,0.67579 1.656691,0.0537 2.485038,0.0806 -0.349438,0.29363 -0.60279,0.98004 -1.048309,0.88088 -1.43271,-0.31889 -4.140549,-4.95524 -4.280961,-5.17384 -4.443785,-6.9185 -8.238931,-14.2221 -12.01757,-21.51599 -1.693894,-3.39695 -3.420695,-6.77768 -5.08168,-10.19083 -6.118635,-12.57317 -11.823724,-25.34896 -17.285936,-38.21921 0,0 -3.28369,1.84746 -3.28369,1.84746 z" />
  </g>
</svg>
